<?xml version="1.0" encoding="utf-8"?>
<!-- Generator: Adobe Illustrator 22.1.0, SVG Export Plug-In . SVG Version: 6.00 Build 0)  -->
<svg version="1.1" id="Слой_1" xmlns="http://www.w3.org/2000/svg" xmlns:xlink="http://www.w3.org/1999/xlink" x="0px" y="0px"
	 viewBox="0 0 907.1 510.2" style="enable-background:new 0 0 907.1 510.2;" xml:space="preserve">
<style type="text/css">
	.st0{fill:url(#SVGID_1_);}
	.st1{fill:#FFFFFF;}
</style>
<g>
	<linearGradient id="SVGID_1_" gradientUnits="userSpaceOnUse" x1="239.7759" y1="228.2642" x2="667.3073" y2="228.2642">
		<stop  offset="0" style="stop-color:#8325FB"/>
		<stop  offset="1" style="stop-color:#00FFEA"/>
	</linearGradient>
	<path class="st0" d="M453.5,43.1L239.8,413.4h55.1h372.4L453.5,43.1z M615.1,351.5H347.1l134-232L615.1,351.5z M472.9,105.2
		L330.6,351.5H292L453.5,71.7L472.9,105.2z M264.5,399.1l19.2-33.3h38.6l-19.2,33.3H264.5z M319.7,399.1l19.2-33.3h284.4l19.2,33.3
		H319.7z"/>
	<path class="st1" d="M886.8,240.4c-3.7,0-14.2,24.8-40.6,42.2c-3.7-12.6-8.9-23.2-8.9-36.2c0-23.6,28.4-45.1,31.7-48.3
		c0-2.8-15.4-15.4-19.1-15.4c-4.5,0-37.8,31.7-37.8,54.4c0,1.4,0.3,2.7,0.4,4.1c-8.6,7.9-49.6,73.5-56.4,66.6
		c-17.5-17.5,84.1-209.6,106.4-231.9c3.7-3.7-20.7-19.1-25.6-14.2c-7.7,7.7-43.9,71.9-72.3,135.3c-6.5-7.7-15.4-13.4-26.4-13.4
		c-26.8,0-49.5,38.5-62.5,75c-15.5,21.6-38.1,54.3-43.1,49.3c-11.8-11.8,26.8-89.8,38.2-101.1c3.3-3.2-15.8-18.7-21.5-14.2
		c-2,1.2-4.1,3.7-6.1,6.9c-6.5-8.1-17.1-15.8-28.4-15.8c-26.5,0-49.3,38.1-62.6,74.5c-16.4,21.5-43.5,55-65.8,55
		c-2.8,0-9.7-3.2-9.7-15c0-8.9,1.6-18.3,4.5-28c3.7,1.6,7.7,2.4,13,2.4c37,0,59.3-41.8,59.3-60.9c0-13-12.2-28-25.2-28
		c-29.5,0-58,40.2-71.2,80.5c-15.4,21.3-35.1,48.6-38.9,43.8C400.2,290,501.7,98.7,524.5,75.9c4.1-4.1-21.5-18.7-26-14.2
		c-10.4,10.4-70,119.6-96.5,195.5c-15.5,21.6-39,55.8-44.1,50.7c-11.8-11.8,26.8-89.8,38.2-101.1c3.3-3.2-15.8-18.7-21.5-14.2
		c-2,1.2-4.1,3.7-6.1,6.9c-6.5-8.1-17.1-15.8-28.4-15.8c-26.3,0-49,37.6-62.3,73.7c-7.8,10.1-18.7,21.2-33.2,23
		c0-9.7-0.8-17.1-2.8-20.3c37-82.9,82.1-167.8,98.3-184c3.7-3.7-20.7-19.1-25.6-14.2C302,74.1,255.6,160.8,216.9,251
		c-6.4-0.4-13.2,0.2-19.7,2.9c0,0-19.4,19.4-11.4,23.2c0,0,5-3,17.8-4.1c-14,19.2-29.1,39.1-32.4,34.9
		C153.2,290,254.8,98.7,277.5,75.9c4.1-4.1-21.5-18.7-26-14.2c-10.4,10.4-70,119.6-96.5,195.5c-15.5,21.6-39,55.8-44.1,50.7
		c-11.8-11.8,26.8-89.8,38.2-101.1c3.3-3.2-15.8-18.7-21.5-14.2c-2,1.2-4.1,3.7-6.1,6.9c-6.5-8.1-17.1-15.8-28.4-15.8
		c-41.8,0-74.7,95.5-74.7,128.4c0,12.6,12.2,29.7,20.7,29.7c11.4,0,30.5-27.2,46.7-56.5c-2.4,10.2-3.7,19.1-3.7,26.8
		c0,12.6,11,29.7,19.5,29.7c9.9,0,28.3-25,43.4-50.1c-1.7,7.7-2.8,14.8-2.8,20.4c0,14.2,11.4,29.7,19.5,29.7
		c7.3,0,19.1-13.5,30.8-30.5c-19,50.6-32.5,97.1-32.5,126.4c0,12.6,14.6,29.7,21.5,29.7c30.1,0,57.3-108.5,62.1-169
		c9.7-1.3,18.4-6.8,25.7-13.8c-2.7,10.9-4.2,20.7-4.2,27.6c0,12.6,12.2,29.7,20.7,29.7c11.4,0,30.5-27.2,46.7-56.5
		c-2.4,10.2-3.7,19.1-3.7,26.8c0,12.6,11,29.7,19.5,29.7c9.9,0,28.3-25,43.4-50.1c-1.7,7.7-2.8,14.8-2.8,20.4
		c0,14.2,11.4,29.7,19.5,29.7c9.4,0,26.6-22.8,41.3-46.7c-0.4,3.9-0.7,7.7-0.7,11.4c0,22.3,19.1,35.3,26,35.3
		c24.4,0,49.8-26.7,67.7-52.7c-2,9.1-3.1,17.1-3.1,23.1c0,12.6,12.2,29.7,20.7,29.7c11.4,0,30.5-27.2,46.7-56.5
		c-2.4,10.2-3.7,19.1-3.7,26.8c0,12.6,11,29.7,19.5,29.7c9.8,0,28-24.5,43-49.4c-1.5,7.7-2.4,14.6-2.4,19.8
		c0,12.6,12.2,29.7,20.3,29.7c11.4,0,31.7-28,47.9-58.5c-2.8,11.8-4.5,21.5-4.5,28.8c0,14.2,11.4,29.7,19.5,29.7
		c17.1,0,58.2-71.8,65.9-94.3c2.2,17.7,9,31.9,12,45.6c-10.2,4.5-22.7,5.3-35.3,6.9c-1.6,1.2-6.5,6.9-6.5,11.4
		c0,8.5,20.7,31.3,37.4,31.3c12.6,0,29.2-15,29.2-37.8c0-2-0.4-4.1-0.4-5.7C878.3,276.6,894.5,240.4,886.8,240.4z M534.2,203.5
		c4.5,4.5-19.9,53.2-47.5,53.2h-0.4C501.3,224.2,527.7,197,534.2,203.5z M48.8,308.3c-0.4,0-0.8-0.4-1.2-0.8
		c-0.4-1.2-0.8-2.8-0.8-5.7c0-37,37.4-99.5,53.6-99.5c5.3,0,9.3,4.9,13.8,9.7l-8.5,17.1C89.5,255.1,60.2,308.3,48.8,308.3z
		 M187.7,433.4c-2-2-2.8-5.3-2.8-10.6c0-22.7,18.3-73.9,42.2-130C220.6,347.7,197.9,443.5,187.7,433.4z M295.8,308.3
		c-0.4,0-0.8-0.4-1.2-0.8c-0.4-1.2-0.8-2.8-0.8-5.7c0-37,37.4-99.5,53.6-99.5c5.3,0,9.3,4.9,13.8,9.7l-8.5,17.1
		C336.4,255.1,307.2,308.3,295.8,308.3z M570.4,308.3c-0.4,0-0.8-0.4-1.2-0.8c-0.4-1.2-0.8-2.8-0.8-5.7c0-37,37.4-99.5,53.6-99.5
		c5.3,0,9.3,4.9,13.8,9.7l-8.5,17.1C611,255.1,581.8,308.3,570.4,308.3z M694.3,308.3c-0.4,0-2-0.4-2-6.5c0-37,36.2-99.5,53.6-99.5
		c4.9,0,8.9,4.1,12.6,8.5l-7.7,19.1C734.1,256.3,705.2,308.3,694.3,308.3z M817.8,320.9c-3.7,0-7.7-1.6-11.8-5.3
		c7.7,0,14.2-1.2,21.1-4.1C826.7,316,824.7,320.9,817.8,320.9z"/>
</g>
</svg>
