<svg xmlns="http://www.w3.org/2000/svg" viewBox="0 0 34 34"><defs></defs><title>Ресурс 4</title><g id="Слой_2" data-name="Слой 2"><g id="Слой_1-2" data-name="Слой 1"><g id="_1_stroke" data-name="1 stroke"><g id="Facebook"><path id="Facebook-2" data-name="Facebook" class="cls-1" d="M18.16,34H1.88A1.88,1.88,0,0,1,0,32.12V1.88A1.88,1.88,0,0,1,1.88,0H32.12A1.88,1.88,0,0,1,34,1.88V32.12A1.88,1.88,0,0,1,32.12,34H23.46V20.83h4.42l.66-5.13H23.46V12.43c0-1.49.41-2.5,2.54-2.5h2.72V5.34a37.19,37.19,0,0,0-4-.2c-3.92,0-6.6,2.39-6.6,6.78V15.7H13.73v5.13h4.43Z"/></g></g></g></g></svg>
