<svg xmlns="http://www.w3.org/2000/svg" viewBox="0 0 34 34"><defs></defs><title>Ресурс 5</title><g id="Слой_2" data-name="Слой 2"><g id="Слой_1-2" data-name="Слой 1"><path class="cls-1" d="M4.64,0A4.66,4.66,0,0,0,0,4.64V29.36A4.66,4.66,0,0,0,4.64,34H29.36A4.66,4.66,0,0,0,34,29.36V4.64A4.66,4.66,0,0,0,29.36,0ZM24.73,4.64h4.63V9.27H24.73ZM17,10.82A6.18,6.18,0,1,1,10.82,17,6.16,6.16,0,0,1,17,10.82ZM3.09,13.91H8.26a9.27,9.27,0,1,0,17.48,0h5.17V29.36a1.52,1.52,0,0,1-1.55,1.55H4.64a1.52,1.52,0,0,1-1.55-1.55Z"/></g></g></svg>
