<svg xmlns="http://www.w3.org/2000/svg" viewBox="0 0 59.59 34"><defs></defs><title>Ресурс 6</title><g id="Слой_2" data-name="Слой 2"><g id="Слой_1-2" data-name="Слой 1"><path class="cls-1" d="M59.28,30.71a3.43,3.43,0,0,0-.2-.39,31,31,0,0,0-5.93-6.86l-.06-.06,0,0,0,0h0a33,33,0,0,1-2.52-2.55,2.38,2.38,0,0,1-.43-2.51,23.09,23.09,0,0,1,2.79-4.07c.85-1.09,1.52-2,2-2.63q5.37-7.14,4.65-9.12l-.18-.31a1.86,1.86,0,0,0-1-.52,4.84,4.84,0,0,0-2-.07l-8.94.06a1.18,1.18,0,0,0-.62,0l-.4.1-.16.07-.12.1a1.39,1.39,0,0,0-.34.32,2,2,0,0,0-.31.55,51.76,51.76,0,0,1-3.32,7c-.77,1.28-1.47,2.39-2.11,3.33a15.2,15.2,0,0,1-1.62,2.08,9.75,9.75,0,0,1-1.18,1.07c-.35.27-.62.39-.8.34l-.53-.12a2.14,2.14,0,0,1-.7-.76,3.47,3.47,0,0,1-.35-1.21,11.13,11.13,0,0,1-.11-1.26c0-.35,0-.85,0-1.49s0-1.07,0-1.3c0-.79,0-1.64,0-2.56s.06-1.65.08-2.19,0-1.1,0-1.7a7.48,7.48,0,0,0-.11-1.42,5,5,0,0,0-.32-1A1.66,1.66,0,0,0,33.9.83a3.42,3.42,0,0,0-1-.42A21.13,21.13,0,0,0,28.67,0Q22.9-.06,21.25.75a4.29,4.29,0,0,0-1.17.93c-.38.46-.43.7-.16.74a3.85,3.85,0,0,1,2.64,1.34l.18.37a6,6,0,0,1,.44,1.43,14.84,14.84,0,0,1,.28,2.26,25,25,0,0,1,0,3.88c-.11,1.08-.2,1.92-.3,2.51a4.8,4.8,0,0,1-.42,1.46,6,6,0,0,1-.37.69.51.51,0,0,1-.15.15,2.41,2.41,0,0,1-.84.16,2,2,0,0,1-1.06-.44A7.62,7.62,0,0,1,19,15a15.87,15.87,0,0,1-1.51-2.13,35.47,35.47,0,0,1-1.74-3.23l-.49-.9C15,8.21,14.56,7.36,14,6.26S13,4.08,12.6,3a2.11,2.11,0,0,0-.75-1L11.7,2a2.68,2.68,0,0,0-.5-.27,3.4,3.4,0,0,0-.71-.2L2,1.55a2.17,2.17,0,0,0-1.77.59l-.13.19a1,1,0,0,0-.09.5,2.35,2.35,0,0,0,.19.83Q2.05,8,4.24,12.1C5.69,14.81,7,17,8,18.65s2.17,3.22,3.29,4.69,1.85,2.41,2.21,2.82.65.72.86.93l.77.75a19.38,19.38,0,0,0,2.19,1.78,37,37,0,0,0,3.2,2.05,17.11,17.11,0,0,0,4.08,1.64,13.73,13.73,0,0,0,4.53.51h3.57a2.46,2.46,0,0,0,1.64-.68L34.5,33a2.2,2.2,0,0,0,.24-.58,3.25,3.25,0,0,0,.1-.85,10.07,10.07,0,0,1,.21-2.41,6.45,6.45,0,0,1,.52-1.61,3.83,3.83,0,0,1,.67-.91,2.72,2.72,0,0,1,.53-.45,1,1,0,0,1,.25-.11,1.94,1.94,0,0,1,1.75.48,10.62,10.62,0,0,1,1.89,1.8q.89,1.06,2.13,2.4a15.06,15.06,0,0,0,2.17,2l.62.37a7.07,7.07,0,0,0,1.61.68,3.5,3.5,0,0,0,1.74.16l7.94-.12a3.56,3.56,0,0,0,1.83-.39,1.53,1.53,0,0,0,.78-.86,2.45,2.45,0,0,0,0-1A4.39,4.39,0,0,0,59.28,30.71Z"/></g></g></svg>
