<svg xmlns="http://www.w3.org/2000/svg" viewBox="0 0 47.34 33.53"><defs></defs><title>Ресурс 7</title><g id="Слой_2" data-name="Слой 2"><g id="Слой_1-2" data-name="Слой 1"><g id="_4_stroke" data-name="4 stroke"><g id="Youtube"><path id="Youtube-2" data-name="Youtube" class="cls-1" d="M46.87,7.23S46.41,4,45,2.5a6.74,6.74,0,0,0-4.75-2C33.62,0,23.68,0,23.68,0h0S13.72,0,7.1.48a6.76,6.76,0,0,0-4.75,2C.94,4,.47,7.23.47,7.23A73.2,73.2,0,0,0,0,15v3.62a72.89,72.89,0,0,0,.47,7.71S.94,29.57,2.35,31c1.81,1.9,4.17,1.84,5.22,2,3.79.37,16.1.48,16.1.48s9.95,0,16.57-.49A6.74,6.74,0,0,0,45,31c1.42-1.45,1.88-4.74,1.88-4.74a72.89,72.89,0,0,0,.47-7.71V15A73.2,73.2,0,0,0,46.87,7.23ZM18.78,23V9.56l12.79,6.72Z"/></g></g></g></g></svg>
