<svg xmlns="http://www.w3.org/2000/svg" viewBox="0 0 17.01 17.99"><defs></defs><title>Ресурс 1</title><g id="Слой_2" data-name="Слой 2"><g id="Слой_1-2" data-name="Слой 1"><rect class="cls-1" y="17.28" width="17.01" height="0.71"/><path class="cls-1" d="M2.74,3.55H1.32a.71.71,0,0,0-.71.71V17H2.74Z"/><path class="cls-1" d="M16.23,4.26a.71.71,0,0,0-.71-.71H14.1V17h2.13Z"/><path class="cls-1" d="M13.39,2.13h-1.8a2.07,2.07,0,0,1,0,.35,3.2,3.2,0,1,1-6.39,0,2.06,2.06,0,0,1,0-.35H3.45V17h9.94ZM6.29,15.62H4.16V13.13H6.29Zm0-3.55H4.16V9.58H6.29Zm0-3.55H4.16V6H6.29Zm3.2,7.1H7.36V13.13H9.49Zm0-3.55H7.36V9.58H9.49Zm0-3.55H7.36V6H9.49Zm3.19,7.1H10.55V13.13h2.13Zm0-3.55H10.55V9.58h2.13Zm0-3.55H10.55V6h2.13Z"/><path class="cls-1" d="M8.91,3a.22.22,0,0,0-.08-.18.67.67,0,0,0-.27-.13v.59a.44.44,0,0,0,.25-.09A.24.24,0,0,0,8.91,3Z"/><path class="cls-1" d="M8.35,1.63a.37.37,0,0,0-.23.09A.23.23,0,0,0,8,1.91a.21.21,0,0,0,.07.17.58.58,0,0,0,.25.12Z"/><path class="cls-1" d="M8.42,5a2.5,2.5,0,0,0,2.49-2.49c0-.12,0-.23,0-.35A2.48,2.48,0,0,0,6,2.13a2.07,2.07,0,0,0,0,.35A2.49,2.49,0,0,0,8.42,5ZM7.8,2.38a.53.53,0,0,1-.17-.44.57.57,0,0,1,.2-.46.74.74,0,0,1,.52-.2V1.11h.21v.17a1.41,1.41,0,0,1,.69.25L9,1.83a1.14,1.14,0,0,0-.47-.19v.62h0a1.27,1.27,0,0,1,.56.25A.54.54,0,0,1,9.31,3a.59.59,0,0,1-.21.47.82.82,0,0,1-.54.2v.24H8.35V3.62a1.54,1.54,0,0,1-.82-.37L7.78,3a1.09,1.09,0,0,0,.57.28V2.61A1.51,1.51,0,0,1,7.8,2.38Z"/></g></g></svg>
