<svg xmlns="http://www.w3.org/2000/svg" viewBox="0 0 17.01 17.01"><defs></defs><title>Ресурс 2</title><g id="Слой_2" data-name="Слой 2"><g id="Слой_1-2" data-name="Слой 1"><path class="cls-1" d="M7.9,7.62A.41.41,0,0,0,8,7.9a.7.7,0,0,0,.39.18V7.19A.56.56,0,0,0,8,7.33.35.35,0,0,0,7.9,7.62Z"/><path class="cls-1" d="M8.72,8.79v.92a.68.68,0,0,0,.39-.14.34.34,0,0,0,.14-.29A.41.41,0,0,0,9.14,9C9.07,8.89,8.93,8.86,8.72,8.79Z"/><path class="cls-1" d="M8.5,5.35A3.16,3.16,0,1,0,11.66,8.5,3.16,3.16,0,0,0,8.5,5.35Zm1,4.57a1.51,1.51,0,0,1-.81.32v.35H8.4v-.35a2.07,2.07,0,0,1-1.24-.53l.35-.43a1.65,1.65,0,0,0,.89.43v-1a2,2,0,0,1-.82-.36.8.8,0,0,1-.25-.67A.91.91,0,0,1,7.65,7a1.44,1.44,0,0,1,.78-.32V6.41h.32v.25a2.15,2.15,0,0,1,1.06.39l-.31.46a1.73,1.73,0,0,0-.71-.28v1h0a2.38,2.38,0,0,1,.85.35.87.87,0,0,1,.28.67A1.28,1.28,0,0,1,9.53,9.92Z"/><path class="cls-1" d="M8.5,3.93A4.57,4.57,0,1,0,13.07,8.5,4.59,4.59,0,0,0,8.5,3.93Zm0,8.29A3.72,3.72,0,1,1,12.22,8.5,3.72,3.72,0,0,1,8.5,12.22Z"/><path class="cls-1" d="M16.65,7.16l-.95-.32a.58.58,0,0,1-.36-.36,6.44,6.44,0,0,0-.56-1.38.46.46,0,0,1,0-.49l.42-.89a.47.47,0,0,0-.11-.6l-1.2-1.21a.49.49,0,0,0-.6-.1l-.89.42a.6.6,0,0,1-.49,0,5.86,5.86,0,0,0-1.39-.56.46.46,0,0,1-.35-.36l-.32-1A.53.53,0,0,0,9.35,0H7.65a.53.53,0,0,0-.49.35l-.32,1a.61.61,0,0,1-.36.36,6,6,0,0,0-1.38.56.48.48,0,0,1-.49,0l-.89-.46a.7.7,0,0,0-.64.11l-1.2,1.2a.7.7,0,0,0-.11.64l.46.89a.6.6,0,0,1,0,.49,6,6,0,0,0-.56,1.38.47.47,0,0,1-.36.36l-1,.32A.53.53,0,0,0,0,7.65v1.7a.53.53,0,0,0,.35.5l1,.32a.62.62,0,0,1,.36.35,5.86,5.86,0,0,0,.56,1.39.48.48,0,0,1,0,.49l-.46.89a.48.48,0,0,0,.11.6l1.2,1.2a.49.49,0,0,0,.61.11l.88-.42a.55.55,0,0,1,.5,0,6,6,0,0,0,1.38.56.45.45,0,0,1,.35.36l.32.95a.53.53,0,0,0,.5.36h1.7a.52.52,0,0,0,.49-.36l.32-.95a.58.58,0,0,1,.36-.36,6.44,6.44,0,0,0,1.38-.56.47.47,0,0,1,.5,0l.88.42a.47.47,0,0,0,.6-.11l1.21-1.2a.49.49,0,0,0,.11-.6l-.39-.89a.53.53,0,0,1,0-.49,6.32,6.32,0,0,0,.56-1.39.46.46,0,0,1,.36-.35l.95-.32a.53.53,0,0,0,.36-.5V7.65A.52.52,0,0,0,16.65,7.16ZM8.5,13.75A5.25,5.25,0,1,1,13.75,8.5,5.23,5.23,0,0,1,8.5,13.75Z"/></g></g></svg>
