<svg xmlns="http://www.w3.org/2000/svg" viewBox="0 0 17.01 20.52"><defs></defs><title>Ресурс 1</title><g id="Слой_2" data-name="Слой 2"><g id="Слой_1-2" data-name="Слой 1"><path class="cls-1" d="M8.48,20.52C4.62,18.77.23,16.43.15,11.61L0,3.89l.08,0C4,3.36,5.58,2.9,8.48,0l0,0,.05,0C11.46,2.9,13,3.36,17,3.86l.05,0-.13,7.72c-.07,4.82-4.46,7.16-8.35,8.91h0Zm0-18.83A11.87,11.87,0,0,1,1.24,4.92l.1,6.66c.07,4,3.93,6.16,7.16,7.62,3.26-1.46,7.12-3.58,7.17-7.62l.13-6.66A12.05,12.05,0,0,1,8.5,1.69Zm7.85,2.75C13,4,11,3.36,8.5.91,6,3.36,4.06,4,.66,4.44l.12,7.14C.86,16,5,18.22,8.5,19.81,12,18.22,16.15,16,16.23,11.58Z"/></g></g></svg>
