<svg xmlns="http://www.w3.org/2000/svg" viewBox="0 0 17.01 16.87"><defs></defs><title>Ресурс 1</title><g id="Слой_2" data-name="Слой 2"><g id="Слой_1-2" data-name="Слой 1"><path class="cls-1" d="M17,9.65a.92.92,0,0,0,0-.28,1,1,0,0,0-1-.78l-5.35,0h-1l-1,0L3.23,8.38a1,1,0,0,0-1.06.75,1.41,1.41,0,0,0,0,.28C2.09,11.47,2,13.55,2,15.59a1,1,0,0,0,1,1.07l6.87.16h.27l5.77.05a1,1,0,0,0,1-1C17,13.8,17,11.72,17,9.65Zm-3.8,5.75-3.67,0H9.41l-3.66-.08a1.88,1.88,0,0,0-1.41-1.49c0-.75,0-1.55.06-2.48a1.73,1.73,0,0,0,1.43-1.26l0-.06a1,1,0,0,0,0-.1L9.57,10l3.67,0a.49.49,0,0,1,0,.11l0,.05a1.71,1.71,0,0,0,1.38,1.3c0,.94,0,1.74,0,2.48A1.89,1.89,0,0,0,13.21,15.4Z"/><path class="cls-1" d="M15.87,7.73a1,1,0,0,0-.88-1l-5.26-1-1-.18-1-.2L2.5,4.37a1,1,0,0,0-1.18.56,1.38,1.38,0,0,0-.08.27C.83,7.22.43,9.26,0,11.26a1,1,0,0,0,.81,1.23l.41.08c0-1.06.05-2.12.08-3.18a1.89,1.89,0,0,1,.06-.48A1.79,1.79,0,0,1,3.12,7.57l0-.11a1.75,1.75,0,0,0,1.63-1l0,0a.53.53,0,0,0,.06-.1l3.61.73,3.61.66v0l3.79,0Z"/><path class="cls-1" d="M12.23,4.5l-.83-.58-.83-.59L6.22.23a1,1,0,0,0-1.29,0,.93.93,0,0,0-.19.21L2.53,3.56h.12L5,4.05c.17-.24.35-.48.53-.75a1.74,1.74,0,0,0,1.89-.24l0,0L7.57,3l3,2.13.07.05h0l3.43.63Z"/><circle class="cls-1" cx="9.52" cy="12.65" r="1.58"/></g></g></svg>
