<svg xmlns="http://www.w3.org/2000/svg" viewBox="0 0 17.01 17.01"><defs></defs><title>Ресурс 2</title><g id="Слой_2" data-name="Слой 2"><g id="Слой_1-2" data-name="Слой 1"><path class="cls-1" d="M.53,0A.53.53,0,0,0,0,.53V7.12a.53.53,0,0,0,.53.53H7.12a.53.53,0,0,0,.53-.53V.53A.53.53,0,0,0,7.12,0ZM9.89,0a.53.53,0,0,0-.53.53V7.12a.53.53,0,0,0,.53.53h6.58A.54.54,0,0,0,17,7.12V.53A.54.54,0,0,0,16.47,0ZM.53,9.36A.53.53,0,0,0,0,9.89v6.58A.54.54,0,0,0,.53,17H7.12a.53.53,0,0,0,.53-.53h0V9.89a.53.53,0,0,0-.53-.53Zm9.36,0a.53.53,0,0,0-.53.53v6.58a.53.53,0,0,0,.53.54h6.58a.54.54,0,0,0,.54-.53h0V9.89a.53.53,0,0,0-.54-.53Z"/></g></g></svg>
